<mxfile host="app.diagrams.net" modified="2024-05-20T18:05:57.346Z" agent="Mozilla/5.0 (Windows NT 10.0; Win64; x64) AppleWebKit/537.36 (KHTML, like Gecko) Chrome/125.0.0.0 Safari/537.36 Edg/125.0.0.0" etag="hMo1dnCTiRH5lVDhL9fD" version="24.4.4" type="device">
  <diagram name="Página-1" id="P5CVYJI0xrZxxHA3R24b">
    <mxGraphModel dx="1431" dy="813" grid="1" gridSize="10" guides="1" tooltips="1" connect="1" arrows="1" fold="1" page="1" pageScale="1" pageWidth="827" pageHeight="1169" math="0" shadow="0">
      <root>
        <mxCell id="0" />
        <mxCell id="1" parent="0" />
        <mxCell id="sAw0vk0DKC4kc4wDuIq9-1" value="App" style="rounded=1;whiteSpace=wrap;html=1;" vertex="1" parent="1">
          <mxGeometry x="20" y="30" width="120" height="250" as="geometry" />
        </mxCell>
        <mxCell id="sAw0vk0DKC4kc4wDuIq9-2" value="BackEnd {Python}" style="rounded=1;whiteSpace=wrap;html=1;" vertex="1" parent="1">
          <mxGeometry x="320" y="190" width="120" height="60" as="geometry" />
        </mxCell>
        <mxCell id="sAw0vk0DKC4kc4wDuIq9-3" value="Firebase&lt;div&gt;/usuarios&lt;/div&gt;&lt;div&gt;/usuarios&lt;/div&gt;&lt;div&gt;&lt;br&gt;&lt;/div&gt;" style="shape=cylinder3;whiteSpace=wrap;html=1;boundedLbl=1;backgroundOutline=1;size=15;" vertex="1" parent="1">
          <mxGeometry x="530" y="50" width="100" height="90" as="geometry" />
        </mxCell>
        <mxCell id="sAw0vk0DKC4kc4wDuIq9-4" value="&lt;div&gt;Backend&lt;/div&gt;&lt;div&gt;/redefinir_senha&lt;/div&gt;&lt;div&gt;/recuperar_senha&lt;/div&gt;&lt;div&gt;/usuarios&lt;/div&gt;&lt;div&gt;/register&lt;/div&gt;&lt;div&gt;/login&lt;/div&gt;&lt;div&gt;&lt;br&gt;&lt;/div&gt;" style="shape=cylinder3;whiteSpace=wrap;html=1;boundedLbl=1;backgroundOutline=1;size=15;" vertex="1" parent="1">
          <mxGeometry x="530" y="155" width="120" height="130" as="geometry" />
        </mxCell>
        <mxCell id="sAw0vk0DKC4kc4wDuIq9-7" value="" style="endArrow=classic;html=1;rounded=0;entryX=0;entryY=0.5;entryDx=0;entryDy=0;" edge="1" parent="1">
          <mxGeometry width="50" height="50" relative="1" as="geometry">
            <mxPoint x="140" y="165" as="sourcePoint" />
            <mxPoint x="320" y="225" as="targetPoint" />
            <Array as="points">
              <mxPoint x="240" y="165" />
              <mxPoint x="240" y="225" />
            </Array>
          </mxGeometry>
        </mxCell>
        <mxCell id="sAw0vk0DKC4kc4wDuIq9-8" value="" style="endArrow=classic;html=1;rounded=0;exitX=1;exitY=0.5;exitDx=0;exitDy=0;" edge="1" parent="1" source="sAw0vk0DKC4kc4wDuIq9-2" target="sAw0vk0DKC4kc4wDuIq9-4">
          <mxGeometry width="50" height="50" relative="1" as="geometry">
            <mxPoint x="390" y="320" as="sourcePoint" />
            <mxPoint x="440" y="270" as="targetPoint" />
          </mxGeometry>
        </mxCell>
        <mxCell id="sAw0vk0DKC4kc4wDuIq9-9" value="" style="endArrow=classic;html=1;rounded=0;exitX=1;exitY=0.25;exitDx=0;exitDy=0;entryX=0;entryY=0.5;entryDx=0;entryDy=0;entryPerimeter=0;" edge="1" parent="1" source="sAw0vk0DKC4kc4wDuIq9-1" target="sAw0vk0DKC4kc4wDuIq9-3">
          <mxGeometry width="50" height="50" relative="1" as="geometry">
            <mxPoint x="390" y="320" as="sourcePoint" />
            <mxPoint x="440" y="270" as="targetPoint" />
          </mxGeometry>
        </mxCell>
        <mxCell id="sAw0vk0DKC4kc4wDuIq9-10" value="App&lt;div&gt;&lt;br&gt;&lt;/div&gt;" style="rounded=0;whiteSpace=wrap;html=1;" vertex="1" parent="1">
          <mxGeometry x="120" y="430" width="120" height="40" as="geometry" />
        </mxCell>
        <mxCell id="sAw0vk0DKC4kc4wDuIq9-12" value="" style="endArrow=none;dashed=1;html=1;rounded=0;entryX=0.5;entryY=1;entryDx=0;entryDy=0;" edge="1" parent="1" target="sAw0vk0DKC4kc4wDuIq9-10">
          <mxGeometry width="50" height="50" relative="1" as="geometry">
            <mxPoint x="180" y="800" as="sourcePoint" />
            <mxPoint x="320" y="670" as="targetPoint" />
          </mxGeometry>
        </mxCell>
        <mxCell id="sAw0vk0DKC4kc4wDuIq9-13" value="" style="endArrow=classic;html=1;rounded=0;" edge="1" parent="1">
          <mxGeometry width="50" height="50" relative="1" as="geometry">
            <mxPoint x="180" y="520" as="sourcePoint" />
            <mxPoint x="950" y="520" as="targetPoint" />
          </mxGeometry>
        </mxCell>
        <mxCell id="sAw0vk0DKC4kc4wDuIq9-14" value="" style="endArrow=none;dashed=1;html=1;rounded=0;" edge="1" parent="1" target="sAw0vk0DKC4kc4wDuIq9-15">
          <mxGeometry width="50" height="50" relative="1" as="geometry">
            <mxPoint x="320" y="800" as="sourcePoint" />
            <mxPoint x="320" y="470" as="targetPoint" />
          </mxGeometry>
        </mxCell>
        <mxCell id="sAw0vk0DKC4kc4wDuIq9-15" value=":usuarios&lt;div&gt;{Firebase}&lt;/div&gt;" style="rounded=0;whiteSpace=wrap;html=1;" vertex="1" parent="1">
          <mxGeometry x="270" y="430" width="100" height="40" as="geometry" />
        </mxCell>
        <mxCell id="sAw0vk0DKC4kc4wDuIq9-16" value="Registrar usuário&lt;div&gt;&lt;br&gt;&lt;/div&gt;" style="text;html=1;align=center;verticalAlign=middle;whiteSpace=wrap;rounded=0;" vertex="1" parent="1">
          <mxGeometry x="200" y="490" width="90" height="30" as="geometry" />
        </mxCell>
        <mxCell id="sAw0vk0DKC4kc4wDuIq9-18" value="" style="html=1;verticalAlign=bottom;endArrow=open;dashed=1;endSize=8;curved=0;rounded=0;" edge="1" parent="1">
          <mxGeometry relative="1" as="geometry">
            <mxPoint x="950" y="580" as="sourcePoint" />
            <mxPoint x="179" y="580" as="targetPoint" />
          </mxGeometry>
        </mxCell>
        <mxCell id="sAw0vk0DKC4kc4wDuIq9-19" value="Cadastro feito com sucesso" style="edgeLabel;html=1;align=center;verticalAlign=middle;resizable=0;points=[];" vertex="1" connectable="0" parent="sAw0vk0DKC4kc4wDuIq9-18">
          <mxGeometry x="0.0024" y="-7" relative="1" as="geometry">
            <mxPoint x="-314" y="-3" as="offset" />
          </mxGeometry>
        </mxCell>
        <mxCell id="sAw0vk0DKC4kc4wDuIq9-20" value=":api.redefinir_senha&lt;div&gt;{Backend Python}&lt;/div&gt;" style="rounded=0;whiteSpace=wrap;html=1;" vertex="1" parent="1">
          <mxGeometry x="420" y="430" width="110" height="40" as="geometry" />
        </mxCell>
        <mxCell id="sAw0vk0DKC4kc4wDuIq9-21" value=":api.recuperar_senha&lt;div&gt;{Backend Python}&lt;/div&gt;" style="rounded=0;whiteSpace=wrap;html=1;" vertex="1" parent="1">
          <mxGeometry x="560" y="430" width="130" height="40" as="geometry" />
        </mxCell>
        <mxCell id="sAw0vk0DKC4kc4wDuIq9-22" value="&lt;div&gt;:api.usuarios&lt;/div&gt;&lt;div&gt;{Backend Python}&lt;/div&gt;" style="rounded=0;whiteSpace=wrap;html=1;" vertex="1" parent="1">
          <mxGeometry x="720" y="430" width="130" height="40" as="geometry" />
        </mxCell>
        <mxCell id="sAw0vk0DKC4kc4wDuIq9-23" value="" style="endArrow=none;dashed=1;html=1;rounded=0;entryX=0.5;entryY=1;entryDx=0;entryDy=0;" edge="1" parent="1" target="sAw0vk0DKC4kc4wDuIq9-20">
          <mxGeometry width="50" height="50" relative="1" as="geometry">
            <mxPoint x="475" y="800" as="sourcePoint" />
            <mxPoint x="390" y="460" as="targetPoint" />
          </mxGeometry>
        </mxCell>
        <mxCell id="sAw0vk0DKC4kc4wDuIq9-24" value="" style="endArrow=none;dashed=1;html=1;rounded=0;entryX=0.5;entryY=1;entryDx=0;entryDy=0;" edge="1" parent="1" target="sAw0vk0DKC4kc4wDuIq9-21">
          <mxGeometry width="50" height="50" relative="1" as="geometry">
            <mxPoint x="620" y="800" as="sourcePoint" />
            <mxPoint x="390" y="460" as="targetPoint" />
            <Array as="points" />
          </mxGeometry>
        </mxCell>
        <mxCell id="sAw0vk0DKC4kc4wDuIq9-25" value="" style="endArrow=none;dashed=1;html=1;rounded=0;entryX=0.5;entryY=1;entryDx=0;entryDy=0;" edge="1" parent="1" target="sAw0vk0DKC4kc4wDuIq9-22">
          <mxGeometry width="50" height="50" relative="1" as="geometry">
            <mxPoint x="785" y="800" as="sourcePoint" />
            <mxPoint x="390" y="460" as="targetPoint" />
          </mxGeometry>
        </mxCell>
        <mxCell id="sAw0vk0DKC4kc4wDuIq9-26" value=":api.register&lt;div&gt;{Backend Python}&lt;/div&gt;" style="rounded=0;whiteSpace=wrap;html=1;" vertex="1" parent="1">
          <mxGeometry x="890" y="430" width="120" height="40" as="geometry" />
        </mxCell>
        <mxCell id="sAw0vk0DKC4kc4wDuIq9-27" value="" style="endArrow=none;dashed=1;html=1;rounded=0;entryX=0.5;entryY=1;entryDx=0;entryDy=0;" edge="1" parent="1" target="sAw0vk0DKC4kc4wDuIq9-26">
          <mxGeometry width="50" height="50" relative="1" as="geometry">
            <mxPoint x="950" y="800" as="sourcePoint" />
            <mxPoint x="550" y="450" as="targetPoint" />
          </mxGeometry>
        </mxCell>
        <mxCell id="sAw0vk0DKC4kc4wDuIq9-29" value=":api.login&lt;div&gt;{Backend Python}&lt;/div&gt;" style="rounded=0;whiteSpace=wrap;html=1;" vertex="1" parent="1">
          <mxGeometry x="1040" y="430" width="120" height="40" as="geometry" />
        </mxCell>
        <mxCell id="sAw0vk0DKC4kc4wDuIq9-30" value="" style="endArrow=none;dashed=1;html=1;rounded=0;entryX=0.5;entryY=1;entryDx=0;entryDy=0;" edge="1" parent="1" target="sAw0vk0DKC4kc4wDuIq9-29">
          <mxGeometry width="50" height="50" relative="1" as="geometry">
            <mxPoint x="1100" y="800" as="sourcePoint" />
            <mxPoint x="640" y="460" as="targetPoint" />
          </mxGeometry>
        </mxCell>
        <mxCell id="sAw0vk0DKC4kc4wDuIq9-32" value="Requisição de esqueceu senha" style="text;html=1;align=center;verticalAlign=middle;whiteSpace=wrap;rounded=0;" vertex="1" parent="1">
          <mxGeometry x="500" y="585" width="100" height="30" as="geometry" />
        </mxCell>
        <mxCell id="sAw0vk0DKC4kc4wDuIq9-35" value="" style="endArrow=classic;html=1;rounded=0;" edge="1" parent="1">
          <mxGeometry width="50" height="50" relative="1" as="geometry">
            <mxPoint x="620" y="620" as="sourcePoint" />
            <mxPoint x="480" y="620" as="targetPoint" />
          </mxGeometry>
        </mxCell>
        <mxCell id="sAw0vk0DKC4kc4wDuIq9-36" value="" style="html=1;verticalAlign=bottom;endArrow=open;dashed=1;endSize=8;curved=0;rounded=0;" edge="1" parent="1">
          <mxGeometry relative="1" as="geometry">
            <mxPoint x="625" y="680" as="sourcePoint" />
            <mxPoint x="475" y="680" as="targetPoint" />
          </mxGeometry>
        </mxCell>
        <mxCell id="sAw0vk0DKC4kc4wDuIq9-37" value="Redifinição de senha&lt;div&gt;após inserção de token&lt;/div&gt;&lt;div&gt;&lt;br&gt;&lt;/div&gt;" style="edgeLabel;html=1;align=center;verticalAlign=middle;resizable=0;points=[];" vertex="1" connectable="0" parent="sAw0vk0DKC4kc4wDuIq9-36">
          <mxGeometry x="0.0024" y="-7" relative="1" as="geometry">
            <mxPoint y="-23" as="offset" />
          </mxGeometry>
        </mxCell>
        <mxCell id="sAw0vk0DKC4kc4wDuIq9-38" value="" style="html=1;verticalAlign=bottom;endArrow=open;dashed=1;endSize=8;curved=0;rounded=0;" edge="1" parent="1">
          <mxGeometry relative="1" as="geometry">
            <mxPoint x="480" y="720" as="sourcePoint" />
            <mxPoint x="180" y="720" as="targetPoint" />
          </mxGeometry>
        </mxCell>
        <mxCell id="sAw0vk0DKC4kc4wDuIq9-39" value="&lt;div&gt;senha redefinida&lt;/div&gt;&lt;div&gt;{200}&lt;/div&gt;" style="edgeLabel;html=1;align=center;verticalAlign=middle;resizable=0;points=[];" vertex="1" connectable="0" parent="sAw0vk0DKC4kc4wDuIq9-38">
          <mxGeometry x="0.0024" y="-7" relative="1" as="geometry">
            <mxPoint x="1" y="-13" as="offset" />
          </mxGeometry>
        </mxCell>
        <mxCell id="sAw0vk0DKC4kc4wDuIq9-42" value="" style="endArrow=classic;html=1;rounded=0;" edge="1" parent="1">
          <mxGeometry width="50" height="50" relative="1" as="geometry">
            <mxPoint x="180" y="800" as="sourcePoint" />
            <mxPoint x="950" y="800" as="targetPoint" />
          </mxGeometry>
        </mxCell>
        <mxCell id="sAw0vk0DKC4kc4wDuIq9-47" value="" style="endArrow=classic;html=1;rounded=0;" edge="1" parent="1">
          <mxGeometry width="50" height="50" relative="1" as="geometry">
            <mxPoint x="180" y="760" as="sourcePoint" />
            <mxPoint x="1100" y="760" as="targetPoint" />
          </mxGeometry>
        </mxCell>
        <mxCell id="sAw0vk0DKC4kc4wDuIq9-48" value="Login feito com sucesso&lt;div&gt;&lt;br&gt;&lt;/div&gt;" style="text;html=1;align=center;verticalAlign=middle;whiteSpace=wrap;rounded=0;" vertex="1" parent="1">
          <mxGeometry x="210" y="730" width="85" height="30" as="geometry" />
        </mxCell>
      </root>
    </mxGraphModel>
  </diagram>
</mxfile>
